<svg width="100" height="100" fill="none" xmlns="http://www.w3.org/2000/svg"><path d="M95.7 17.8L82.2 4.3c-2.4-2.4-6.5-2.4-8.8 0L48.2 29.4 30.5 11.6c-5.2-5.2-13.6-5.2-18.8 0-2.5 2.5-3.9 5.8-3.9 9.4 0 3.6 1.4 6.9 3.9 9.4l17.7 17.7L4.3 73.3c-2.4 2.4-2.4 6.4 0 8.8l13.5 13.5c1.2 1.2 2.7 1.8 4.4 1.8 1.7 0 3.2-.6 4.4-1.8l25.1-25.1L72 90.8c1 1 2.2 1.7 3.6 1.8l11.4 2c.3.1.7.1 1 .1 1.8 0 3.5-.7 4.7-2 1.4-1.5 2.1-3.6 1.8-5.7l-1.9-11.3c-.2-1.4-.9-2.6-1.8-3.6L70.6 51.7l25.1-25.1c2.4-2.4 2.4-6.4 0-8.8zM33.5 44.2L22.2 32.8l10.7-10.7 11.3 11.3-10.7 10.8zM13.5 21c0-2 .7-3.9 2.2-5.4 1.5-1.4 3.5-2.2 5.4-2.2 2 0 3.9.7 5.4 2.2l2.4 2.4-10.8 10.8-2.4-2.4c-1.4-1.5-2.2-3.4-2.2-5.4zm75.2 67.6c-.1.1-.3.3-.7.2l-11.8-2.1-1.8-1.7 10.7-10.7 1.8 1.8c.1.1.2.3.2.5l1.8 11.3c.1.4-.1.6-.2.7zM81 70.3L70.3 81 55.8 66.5l10.7-10.7L81 70.3zm10.6-47.7l-69 69c-.2.2-.5.2-.7 0L8.4 78.1c-.2-.2-.2-.5 0-.7l4.9-4.9 4.9 4.9c.6.6 1.3.8 2 .8s1.5-.3 2-.8c1.1-1.1 1.1-2.9 0-4.1l-4.9-4.9 6.9-6.9 4.9 4.9c.6.6 1.3.8 2 .8s1.5-.3 2-.8c1.1-1.1 1.1-2.9 0-4.1l-4.9-4.9 6.9-6.9L43 58c.6.6 1.3.8 2 .8s1.5-.3 2-.8c1.1-1.1 1.1-2.9 0-4.1l-7.6-7.6 6.9-6.9 4.9 4.9c.6.6 1.3.8 2 .8s1.5-.3 2-.8c1.1-1.1 1.1-2.9 0-4.1l-4.9-4.9 6.9-6.9 4.9 4.9c.6.6 1.3.8 2 .8s1.5-.3 2-.8c1.1-1.1 1.1-2.9 0-4.1l-4.9-4.9 6.9-6.9L76 25c.6.6 1.3.8 2 .8s1.5-.3 2-.8c1.1-1.1 1.1-2.9 0-4.1l-7.6-7.6 4.9-4.9h.7l13.5 13.5c.3.2.3.5.1.7z" fill="#FEFDFD"/></svg>