<svg width="310" height="53" fill="none" xmlns="http://www.w3.org/2000/svg"><path d="M57.309 33.038h7.932C64.634 27.178 59.37 23 52.538 23c-7.791 0-14.114 5.418-14.114 15.057 0 9.24 5.73 14.943 14.17 14.943 7.566 0 12.986-4.677 12.986-12.662V36.29H52.764v5.646h5.25c-.07 2.538-1.849 4.164-5.363 4.164-4.065 0-6.154-3.023-6.154-8.156 0-5.062 2.258-8.042 6.21-8.042 2.456 0 4.122 1.14 4.602 3.137zm18.084 19.905c2.823 0 4.954-.97 6.267-3.422h.17v3.08h7.282v-15c0-4.05-3.797-7.187-9.993-7.187-6.478 0-9.668 3.422-9.936 7.415h7.17c.183-1.355 1.171-1.996 2.653-1.996 1.355 0 2.315.627 2.315 1.768v.057c0 1.269-1.383 1.668-5.025 1.939-4.474.328-7.96 2.153-7.96 6.958 0 4.363 2.907 6.388 7.057 6.388zm2.54-4.962c-1.326 0-2.258-.656-2.258-1.882 0-1.127.79-1.996 2.597-2.281 1.242-.2 2.287-.457 3.105-.799v1.825c0 1.996-1.68 3.137-3.444 3.137zM92.835 52.6h7.791V41.195c0-2.51 1.708-4.164 4.009-4.164.804 0 2.103.129 2.879.4v-6.716a6.98 6.98 0 00-1.976-.3c-2.315 0-4.122 1.37-4.912 4.45h-.226V30.7h-7.565v21.9zm17.234 0h7.791V41.195c0-2.51 1.708-4.164 4.008-4.164.805 0 2.103.129 2.88.4v-6.716a6.98 6.98 0 00-1.976-.3c-2.315 0-4.122 1.37-4.912 4.45h-.226V30.7h-7.565v21.9zm26.38.4c6.012 0 9.88-2.909 10.614-7.471h-7.114c-.452 1.24-1.736 1.939-3.331 1.939-2.315 0-3.67-1.54-3.67-3.65v-.343h14.115V41.65c0-6.972-4.235-11.236-10.784-11.236-6.718 0-11.009 4.506-11.009 11.293 0 7.087 4.234 11.293 11.179 11.293zm-3.501-13.86c.042-1.896 1.595-3.193 3.501-3.193 1.933 0 3.401 1.312 3.443 3.194h-6.944zm30.223-8.44h-3.726v-5.247h-7.792V30.7h-2.766v5.703h2.766v9.895c-.056 4.592 2.753 6.916 8.13 6.616 1.765-.1 3.077-.47 3.783-.684l-1.129-5.532c-.297.071-1.059.228-1.525.228-1.016 0-1.467-.456-1.467-1.369v-9.154h3.726V30.7zm16.108 0h-3.726v-5.247h-7.792V30.7h-2.766v5.703h2.766v9.895c-.056 4.592 2.753 6.916 8.13 6.616 1.765-.1 3.077-.47 3.783-.684l-1.129-5.532c-.297.071-1.059.228-1.524.228-1.017 0-1.468-.456-1.468-1.369v-9.154h3.726V30.7zm26.567 1.825h7.509C213.326 26.793 208.951 23 201.95 23c-6.874 0-11.729 3.736-11.687 9.297-.014 4.562 3.12 7.1 8.243 8.213l2.88.627c3.218.713 4.319 1.526 4.347 2.852-.028 1.44-1.327 2.452-3.839 2.452-3.007 0-4.785-1.426-4.912-4.106h-7.453c.029 7.328 4.941 10.608 12.478 10.608 7.325 0 11.715-3.194 11.743-8.954-.028-4.45-2.654-7.572-9.033-8.955l-2.372-.513c-2.738-.585-3.966-1.397-3.895-2.795.014-1.283 1.073-2.224 3.5-2.224 2.541 0 3.741 1.126 3.896 3.023zm17.043 20.418c2.823 0 4.954-.97 6.267-3.422h.169v3.08h7.283v-15c0-4.05-3.797-7.187-9.993-7.187-6.478 0-9.668 3.422-9.936 7.415h7.17c.183-1.355 1.171-1.996 2.653-1.996 1.355 0 2.315.627 2.315 1.768v.057c0 1.269-1.383 1.668-5.025 1.939-4.474.328-7.96 2.153-7.96 6.958 0 4.363 2.907 6.388 7.057 6.388zm2.541-4.962c-1.327 0-2.259-.656-2.259-1.882 0-1.127.791-1.996 2.597-2.281 1.242-.2 2.287-.457 3.106-.799v1.825c0 1.996-1.68 3.137-3.444 3.137zM247.049 30.7h-7.791l5.759 10.95-6.154 10.95h7.791l3.557-6.957 3.67 6.958h7.678l-6.097-10.95 5.815-10.951h-7.735l-3.331 6.787-3.162-6.787zM273.754 53c7.057 0 11.235-4.563 11.235-11.293 0-6.73-4.178-11.293-11.235-11.293-7.057 0-11.235 4.563-11.235 11.293 0 6.73 4.178 11.293 11.235 11.293zm.056-5.818c-2.088 0-3.331-2.096-3.331-5.532s1.243-5.532 3.331-5.532c1.976 0 3.219 2.096 3.219 5.532 0 3.437-1.243 5.532-3.219 5.532zm22.132-6.901c.014-2.167 1.228-3.479 3.162-3.479 1.961 0 3.119 1.312 3.105 3.48V52.6H310V38.627c.014-4.762-2.964-8.213-7.565-8.213-3.19 0-5.717 1.683-6.662 4.45h-.226V30.7h-7.396v21.9h7.791V40.282z" fill="#031D1D"/><g clip-path="url(#clip0)"><path d="M19.771.5C16.082.5 12.476 1.6 9.41 3.66a18.73 18.73 0 00-6.87 8.415 18.841 18.841 0 00-1.061 10.833 18.78 18.78 0 005.104 9.6 18.622 18.622 0 009.55 5.132c3.619.723 7.369.352 10.777-1.067a18.673 18.673 0 008.371-6.906 18.82 18.82 0 003.144-10.417A18.8 18.8 0 0032.96 5.992 18.603 18.603 0 0019.77.5zm9.948 19.396a.465.465 0 01-.428.289.927.927 0 00-.658.273.937.937 0 00-.272.661v3.27c0 3.234-3.256 6.069-6.967 6.069-3.712 0-6.98-2.839-6.98-6.073V11.308a2.345 2.345 0 00-.672-1.638 2.32 2.32 0 00-1.623-.693h-1.87a.464.464 0 01-.466-.467.469.469 0 01.465-.468h1.871a9.65 9.65 0 015.131 1.723c1.783 1.227 2.762 2.77 2.762 4.346v1.4h-1.389a.464.464 0 00-.464.468.469.469 0 00.465.467h1.392v.935h-1.392a.464.464 0 00-.465.467.469.469 0 00.465.467h1.392v.935h-1.392a.464.464 0 00-.465.467.469.469 0 00.465.468h1.392v1.4c0 .247.098.485.273.66a.927.927 0 001.314 0 .937.937 0 00.273-.66V12.71a.467.467 0 01.285-.433.46.46 0 01.507.103l6.952 7.008a.466.466 0 01.1.507z" fill="#031D1D"/></g><defs><clipPath id="clip0"><path fill="#fff" transform="translate(1.12 .5)" d="M0 0h37.304v37.5H0z"/></clipPath></defs></svg>