<svg width="100" height="100" fill="none" xmlns="http://www.w3.org/2000/svg"><path d="M84.375 3.125H31.25c-.414 0-.812.165-1.105.458L14.52 19.208c-.293.293-.457.69-.457 1.105v75a1.563 1.563 0 001.562 1.562h68.75a1.563 1.563 0 001.563-1.563V4.689a1.563 1.563 0 00-1.563-1.563zM29.687 8.459V18.75h-10.29l10.29-10.29zM82.814 93.75H17.186V21.875H31.25a1.563 1.563 0 001.563-1.563V6.25h50v87.5z" fill="#FEFDFD"/><path d="M56.25 59.375h-12.5V62.5h12.5v-3.125z" fill="#FEFDFD"/><path d="M34.375 39.219a7.812 7.812 0 000 15.312v12.657a1.563 1.563 0 001.563 1.562h28.124a1.563 1.563 0 001.563-1.563V54.532a7.813 7.813 0 000-15.312V25a1.563 1.563 0 00-1.563-1.563h-9.374v-9.375h-9.376v9.376h-9.374A1.563 1.563 0 0034.374 25v14.219zm3.125-3.282h25v3.126h-25v-3.126zm24.76 6.25a4.197 4.197 0 01-4.447 3.126 4.199 4.199 0 01-4.449-3.126h8.895zm-15.626 0a4.197 4.197 0 01-4.447 3.126 4.199 4.199 0 01-4.448-3.126h8.895zM31.25 46.876a4.697 4.697 0 013.125-4.42v8.84a4.697 4.697 0 01-3.125-4.42zm31.25 18.75h-25v-18.56a7.813 7.813 0 004.688 1.373A7.532 7.532 0 0050 40.624a7.532 7.532 0 007.813 7.813 7.813 7.813 0 004.687-1.374v18.561zm6.25-18.75a4.697 4.697 0 01-3.125 4.42v-8.84a4.697 4.697 0 013.125 4.42zM48.437 17.187h3.126v9.375h-3.126v-9.375zM37.5 26.563h7.813v3.125h9.374v-3.125H62.5v6.25h-25v-6.25z" fill="#FEFDFD"/><path d="M51.563 50h-3.126v6.25h3.126V50zM22.098 39.82l2.679 1.61 6.109-10.18h-4.92l1.995-3.99-2.797-1.396-4.255 8.511h4.455l-3.266 5.445zM72.24 79.687l-3.267 5.446 2.679 1.61 6.109-10.18h-4.92l1.995-3.99-2.797-1.396-4.255 8.51h4.455zm-28.49-6.249H28.125v3.124H43.75v-3.124zm-6.25 6.25h-9.375v3.124H37.5v-3.124zm3.125 6.25h-12.5v3.124h12.5v-3.124zm21.875-12.5H46.875v3.124H62.5v-3.124zm-6.25 6.25h-9.375v3.124h9.375v-3.124zm0 6.25h-12.5v3.124h12.5v-3.124zm-12.5-6.25h-3.125v3.124h3.125v-3.124zm32.813-57.813h3.124v-12.5h-6.25V12.5h3.126v9.375zM79.688 25h-3.126v3.125h3.126V25zM25 73.438h-3.125v3.124H25v-3.124zm0 6.25h-3.125v3.124H25v-3.124zm0 6.25h-3.125v3.124H25v-3.124z" fill="#FEFDFD"/></svg>