<svg width="20" height="21" viewBox="0 0 20 21" fill="none" xmlns="http://www.w3.org/2000/svg">
<path d="M3.33335 4.99988H7.64299C8.08504 4.99988 8.50893 5.17546 8.82148 5.48801L13.3334 10.8332L8.82148 16.1784C8.50893 16.4909 8.08504 16.6665 7.64299 16.6665H3.33335C2.41289 16.6665 1.66669 15.9203 1.66669 14.9999V6.66654C1.66669 5.74603 2.41289 4.99988 3.33335 4.99988ZM13.8215 5.48801C13.5089 5.17546 13.085 4.99988 12.643 4.99988H10.5905L14.607 9.75818L15.5144 10.8332L14.607 11.9082L10.5905 16.6665H12.643C13.085 16.6665 13.5089 16.4909 13.8215 16.1784L18.3334 10.8332L13.8215 5.48801Z" fill="#031D1D"/>
</svg>
