<svg width="20" height="21" viewBox="0 0 20 21" fill="none" xmlns="http://www.w3.org/2000/svg">
<path d="M3.33341 4.99988H7.64306C8.0851 4.99988 8.50899 5.17546 8.82154 5.48801L13.3334 10.8332L8.82154 16.1784C8.50899 16.4909 8.0851 16.6665 7.64306 16.6665H3.33341C2.41295 16.6665 1.66675 15.9203 1.66675 14.9999V6.66654C1.66675 5.74603 2.41295 4.99988 3.33341 4.99988ZM13.8216 5.48801C13.509 5.17546 13.0851 4.99988 12.6431 4.99988H10.5905L14.607 9.75818L15.5145 10.8332L14.607 11.9082L10.5905 16.6665H12.6431C13.0851 16.6665 13.509 16.4909 13.8216 16.1784L18.3334 10.8332L13.8216 5.48801Z" fill="#FEFDFD"/>
</svg>
