<svg width="100" height="100" viewBox="0 0 100 100" fill="none" xmlns="http://www.w3.org/2000/svg">
<path d="M95.7 17.8L82.2 4.3C79.8 1.9 75.7 1.9 73.4 4.3L48.2 29.4L30.5 11.6C25.3 6.4 16.9 6.4 11.7 11.6C9.2 14.1 7.8 17.4 7.8 21C7.8 24.6 9.2 27.9 11.7 30.4L29.4 48.1L4.3 73.3C1.9 75.7 1.9 79.7 4.3 82.1L17.8 95.6C19 96.8 20.5 97.4 22.2 97.4C23.9 97.4 25.4 96.8 26.6 95.6L51.7 70.5L72 90.8C73 91.8 74.2 92.5 75.6 92.6L87 94.6C87.3 94.7 87.7 94.7 88 94.7C89.8 94.7 91.5 94 92.7 92.7C94.1 91.2 94.8 89.1 94.5 87L92.6 75.7C92.4 74.3 91.7 73.1 90.8 72.1L70.6 51.7L95.7 26.6C98.1 24.2 98.1 20.2 95.7 17.8ZM33.5 44.2L22.2 32.8L32.9 22.1L44.2 33.4L33.5 44.2ZM13.5 21C13.5 19 14.2 17.1 15.7 15.6C17.2 14.2 19.2 13.4 21.1 13.4C23.1 13.4 25 14.1 26.5 15.6L28.9 18L18.1 28.8L15.7 26.4C14.3 24.9 13.5 23 13.5 21ZM88.7 88.6C88.6 88.7 88.4 88.9 88 88.8L76.2 86.7L74.4 85L85.1 74.3L86.9 76.1C87 76.2 87.1 76.4 87.1 76.6L88.9 87.9C89 88.3 88.8 88.5 88.7 88.6ZM81 70.3L70.3 81L55.8 66.5L66.5 55.8L81 70.3ZM91.6 22.6L22.6 91.6C22.4 91.8 22.1 91.8 21.9 91.6L8.4 78.1C8.2 77.9 8.2 77.6 8.4 77.4L13.3 72.5L18.2 77.4C18.8 78 19.5 78.2 20.2 78.2C20.9 78.2 21.7 77.9 22.2 77.4C23.3 76.3 23.3 74.5 22.2 73.3L17.3 68.4L24.2 61.5L29.1 66.4C29.7 67 30.4 67.2 31.1 67.2C31.8 67.2 32.6 66.9 33.1 66.4C34.2 65.3 34.2 63.5 33.1 62.3L28.2 57.4L35.1 50.5L43 58C43.6 58.6 44.3 58.8 45 58.8C45.7 58.8 46.5 58.5 47 58C48.1 56.9 48.1 55.1 47 53.9L39.4 46.3L46.3 39.4L51.2 44.3C51.8 44.9 52.5 45.1 53.2 45.1C53.9 45.1 54.7 44.8 55.2 44.3C56.3 43.2 56.3 41.4 55.2 40.2L50.3 35.3L57.2 28.4L62.1 33.3C62.7 33.9 63.4 34.1 64.1 34.1C64.8 34.1 65.6 33.8 66.1 33.3C67.2 32.2 67.2 30.4 66.1 29.2L61.2 24.3L68.1 17.4L76 25C76.6 25.6 77.3 25.8 78 25.8C78.7 25.8 79.5 25.5 80 25C81.1 23.9 81.1 22.1 80 20.9L72.4 13.3L77.3 8.4H78L91.5 21.9C91.8 22.1 91.8 22.4 91.6 22.6Z" fill="#FEFDFD"/>
</svg>
