<svg width="100" height="100" viewBox="0 0 100 100" fill="none" xmlns="http://www.w3.org/2000/svg">
<path d="M84.375 3.125H31.25C30.8356 3.12509 30.4383 3.28977 30.1453 3.58281L14.5203 19.2078C14.2273 19.5008 14.0626 19.8981 14.0625 20.3125V95.3125C14.0625 95.7269 14.2271 96.1243 14.5201 96.4174C14.8132 96.7104 15.2106 96.875 15.625 96.875H84.375C84.7894 96.875 85.1868 96.7104 85.4799 96.4174C85.7729 96.1243 85.9375 95.7269 85.9375 95.3125V4.6875C85.9375 4.2731 85.7729 3.87567 85.4799 3.58265C85.1868 3.28962 84.7894 3.125 84.375 3.125ZM29.6875 8.45937V18.75H19.3969L29.6875 8.45937ZM82.8125 93.75H17.1875V21.875H31.25C31.6644 21.875 32.0618 21.7104 32.3549 21.4174C32.6479 21.1243 32.8125 20.7269 32.8125 20.3125V6.25H82.8125V93.75Z" fill="#FEFDFD"/>
<path d="M56.25 59.375H43.75V62.5H56.25V59.375Z" fill="#FEFDFD"/>
<path d="M34.375 39.2188C32.6089 39.5774 31.0211 40.5355 29.8807 41.9308C28.7402 43.3262 28.1172 45.0729 28.1172 46.875C28.1172 48.6771 28.7402 50.4238 29.8807 51.8192C31.0211 53.2145 32.6089 54.1726 34.375 54.5313V67.1875C34.375 67.6019 34.5396 67.9993 34.8326 68.2924C35.1257 68.5854 35.5231 68.75 35.9375 68.75H64.0625C64.4769 68.75 64.8743 68.5854 65.1674 68.2924C65.4604 67.9993 65.625 67.6019 65.625 67.1875V54.5313C67.3911 54.1726 68.9789 53.2145 70.1193 51.8192C71.2598 50.4238 71.8828 48.6771 71.8828 46.875C71.8828 45.0729 71.2598 43.3262 70.1193 41.9308C68.9789 40.5355 67.3911 39.5774 65.625 39.2188V25C65.625 24.5856 65.4604 24.1882 65.1674 23.8951C64.8743 23.6021 64.4769 23.4375 64.0625 23.4375H54.6875V14.0625H45.3125V23.4375H35.9375C35.5231 23.4375 35.1257 23.6021 34.8326 23.8951C34.5396 24.1882 34.375 24.5856 34.375 25V39.2188ZM37.5 35.9375H62.5V39.0625H37.5V35.9375ZM62.2594 42.1875C62.0093 43.1512 61.4247 43.9946 60.6101 44.5671C59.7955 45.1395 58.8039 45.4037 57.8125 45.3125C56.8209 45.4038 55.8291 45.1396 55.0142 44.5672C54.1993 43.9948 53.6145 43.1513 53.3641 42.1875H62.2594ZM46.6344 42.1875C46.3843 43.1512 45.7997 43.9946 44.9851 44.5671C44.1705 45.1395 43.1789 45.4037 42.1875 45.3125C41.1959 45.4038 40.2041 45.1396 39.3892 44.5672C38.5743 43.9948 37.9895 43.1513 37.7391 42.1875H46.6344ZM31.25 46.875C31.2512 45.9058 31.5522 44.9607 32.1116 44.1694C32.6711 43.378 33.4617 42.779 34.375 42.4547V51.2953C33.4617 50.971 32.6711 50.372 32.1116 49.5806C31.5522 48.7893 31.2512 47.8442 31.25 46.875ZM62.5 65.625H37.5V47.0641C38.8755 48.0111 40.5184 48.4925 42.1875 48.4375C43.224 48.4768 44.2574 48.3015 45.223 47.9228C46.1887 47.5441 47.0657 46.97 47.7991 46.2366C48.5325 45.5032 49.1066 44.6262 49.4853 43.6605C49.864 42.6949 50.0393 41.6615 50 40.625C49.9607 41.6615 50.136 42.6949 50.5147 43.6605C50.8934 44.6262 51.4675 45.5032 52.2009 46.2366C52.9343 46.97 53.8113 47.5441 54.777 47.9228C55.7426 48.3015 56.776 48.4768 57.8125 48.4375C59.4816 48.4925 61.1245 48.0111 62.5 47.0641V65.625ZM68.75 46.875C68.7488 47.8442 68.4478 48.7893 67.8884 49.5806C67.3289 50.372 66.5383 50.971 65.625 51.2953V42.4547C66.5383 42.779 67.3289 43.378 67.8884 44.1694C68.4478 44.9607 68.7488 45.9058 68.75 46.875ZM48.4375 17.1875H51.5625V26.5625H48.4375V17.1875ZM37.5 26.5625H45.3125V29.6875H54.6875V26.5625H62.5V32.8125H37.5V26.5625Z" fill="#FEFDFD"/>
<path d="M51.5625 50H48.4375V56.25H51.5625V50Z" fill="#FEFDFD"/>
<path d="M22.0984 39.8203L24.7766 41.4296L30.8859 31.25H25.9656L27.9609 27.2609L25.1641 25.864L20.9094 34.375H25.3641L22.0984 39.8203Z" fill="#FEFDFD"/>
<path d="M72.2391 79.6874L68.9734 85.1328L71.6516 86.7421L77.7609 76.5624H72.8406L74.8359 72.5734L72.0391 71.1765L67.7844 79.6874H72.2391Z" fill="#FEFDFD"/>
<path d="M43.75 73.4375H28.125V76.5625H43.75V73.4375Z" fill="#FEFDFD"/>
<path d="M37.5 79.6875H28.125V82.8125H37.5V79.6875Z" fill="#FEFDFD"/>
<path d="M40.625 85.9375H28.125V89.0625H40.625V85.9375Z" fill="#FEFDFD"/>
<path d="M62.5 73.4375H46.875V76.5625H62.5V73.4375Z" fill="#FEFDFD"/>
<path d="M56.25 79.6875H46.875V82.8125H56.25V79.6875Z" fill="#FEFDFD"/>
<path d="M56.25 85.9375H43.75V89.0625H56.25V85.9375Z" fill="#FEFDFD"/>
<path d="M43.75 79.6875H40.625V82.8125H43.75V79.6875Z" fill="#FEFDFD"/>
<path d="M76.5625 21.875H79.6875V9.375H73.4375V12.5H76.5625V21.875Z" fill="#FEFDFD"/>
<path d="M79.6875 25H76.5625V28.125H79.6875V25Z" fill="#FEFDFD"/>
<path d="M25 73.4375H21.875V76.5625H25V73.4375Z" fill="#FEFDFD"/>
<path d="M25 79.6875H21.875V82.8125H25V79.6875Z" fill="#FEFDFD"/>
<path d="M25 85.9375H21.875V89.0625H25V85.9375Z" fill="#FEFDFD"/>
</svg>
